<?xml version="1.0" encoding="utf-8"?>
<!-- Generator: Adobe Illustrator 16.0.0, SVG Export Plug-In . SVG Version: 6.00 Build 0)  -->
<!DOCTYPE svg PUBLIC "-//W3C//DTD SVG 1.1//EN" "http://www.w3.org/Graphics/SVG/1.1/DTD/svg11.dtd">
<svg version="1.1" id="Layer_1" xmlns="http://www.w3.org/2000/svg" xmlns:xlink="http://www.w3.org/1999/xlink" x="0px" y="0px"
	 width="127.166px" height="18.632px" viewBox="0 0 127.166 18.632" enable-background="new 0 0 127.166 18.632"
	 xml:space="preserve">
<path fill="#231F20" d="M79.746,15.844c-0.183-0.045-0.313-0.211-0.313-0.4V0.239h-2.856v18.153h10.866v-2.536h-7.599
	C79.814,15.856,79.781,15.853,79.746,15.844z M67.012,0.239h-4.645v18.153h2.855v-4.298h1.79c4.963,0,7.74-2.75,7.74-6.913
	C74.752,2.989,72.003,0.239,67.012,0.239z M66.904,11.559h-1.27c-0.033,0-0.067-0.004-0.102-0.012
	c-0.182-0.045-0.312-0.211-0.312-0.402V3.189c0-0.19,0.13-0.356,0.312-0.401c0.034-0.008,0.068-0.013,0.102-0.013h1.27
	c3.47,0,4.912,1.655,4.912,4.405C71.816,9.903,70.402,11.559,66.904,11.559z M105.707,2.776h4.982c0.035,0,0.066,0.005,0.098,0.013
	c0.184,0.044,0.313,0.21,0.313,0.401v15.203h2.857V3.188c0.002-0.189,0.129-0.354,0.311-0.399c0.035-0.008,0.066-0.013,0.1-0.013
	h4.982V0.239h-13.643V2.776z M124.098,0.268c-1.705,0-3.066,1.292-3.066,3.049s1.361,3.049,3.066,3.049
	c1.703,0,3.068-1.292,3.068-3.049S125.801,0.268,124.098,0.268z M124.098,5.52c-1.234,0-2.096-0.943-2.096-2.203
	c0-1.258,0.861-2.203,2.096-2.203c1.232,0,2.098,0.945,2.098,2.203C126.195,4.576,125.33,5.52,124.098,5.52z M26.77,0
	c-5.206,0-9.37,3.951-9.37,9.315c0,5.367,4.164,9.317,9.37,9.317c5.204,0,9.369-3.95,9.369-9.317C36.138,3.951,31.974,0,26.77,0z
	 M26.77,16.042c-3.765,0-6.407-2.882-6.407-6.727c0-3.843,2.642-6.727,6.407-6.727c3.764,0,6.407,2.883,6.407,6.727
	C33.176,13.161,30.534,16.042,26.77,16.042z M9.29,16.042c-3.659,0-6.328-2.802-6.328-6.727c0-3.843,2.617-6.727,6.219-6.727
	c2.404,0,3.953,0.855,5.151,2.483l2.19-1.548C14.949,1.307,12.626,0,9.263,0C4.084,0,0,3.951,0,9.315
	c0,5.367,4.003,9.317,9.182,9.317c3.523,0,5.9-1.228,7.768-3.712l-2.215-1.52C13.373,15.163,11.638,16.042,9.29,16.042z M96.352,0
	c-5.207,0-9.371,3.951-9.371,9.315c0,5.367,4.164,9.317,9.371,9.317c5.205,0,9.369-3.95,9.369-9.317
	C105.721,3.951,101.557,0,96.352,0z M96.352,16.042c-3.766,0-6.408-2.882-6.408-6.727c0-3.843,2.643-6.727,6.408-6.727
	c3.764,0,6.406,2.883,6.406,6.727C102.758,13.161,100.115,16.042,96.352,16.042z M49.283,11.382
	c-0.071,0.14-0.214,0.224-0.365,0.224c-0.032,0-0.064-0.004-0.094-0.011c-0.183-0.04-0.316-0.204-0.32-0.394V0.215H43.84
	l-9.189,18.152h3.026l7.292-13.828c0.073-0.14,0.217-0.222,0.367-0.222c0.031,0,0.064,0.005,0.097,0.012
	c0.184,0.046,0.313,0.211,0.313,0.401v13.639h3.027L56.065,4.54c0.071-0.14,0.213-0.221,0.363-0.221
	c0.035,0,0.065,0.004,0.099,0.012c0.183,0.045,0.313,0.21,0.313,0.401v13.639h2.759V0.217h-4.664L49.283,11.382z M124.818,4.015
	c0.361-0.218,0.557-0.602,0.553-1.055c0.002-0.374-0.125-0.701-0.371-0.928c-0.246-0.226-0.602-0.349-1.039-0.349h-0.895v3.27h0.711
	V4.229h0.184c0.055,0,0.109-0.002,0.162-0.007l0.512,0.73h0.855l-0.131-0.185L124.818,4.015z M124.492,3.421
	c-0.104,0.098-0.275,0.163-0.551,0.164h-0.164V2.34h0.164c0.273,0,0.445,0.065,0.551,0.163c0.102,0.099,0.156,0.247,0.156,0.457
	C124.648,3.175,124.594,3.322,124.492,3.421z"/>
</svg>
